<svg id="Layer_1" data-name="Layer 1" xmlns="http://www.w3.org/2000/svg" viewBox="0 0 221.36 223.86"><defs><style>.cls-1{fill:none;stroke:#231f20;stroke-miterlimit:10;stroke-width:10px;}.cls-2{fill:#efefef;}</style></defs><path class="cls-1" d="M303.85,375.46" transform="translate(-301.35 -156.6)"/><polygon class="cls-2" points="221.36 223.86 216.36 223.86 216.36 5 5 5 5 223.86 0 223.86 0 0 221.36 0 221.36 223.86"/><polyline class="cls-2" points="89.61 115.51 37.75 173.32 18.38 173.32 74.63 110.61 23.1 48.04 41.77 48.04 86.81 102.74 89.61 106.14"/><rect class="cls-2" x="89.61" y="48.04" width="14.42" height="125.28"/><polyline class="cls-2" points="131.75 115.51 183.6 173.32 202.97 173.32 146.72 110.61 198.25 48.04 179.59 48.04 134.54 102.74 131.75 106.14"/><rect class="cls-2" x="418.67" y="204.64" width="14.42" height="125.28" transform="translate(550.42 377.96) rotate(180)"/><path class="cls-2" d="M320.83,380.08V364.56h1.88v7.7h.19l7-7.7h2.45l-6.52,7,6.52,8.51h-2.27l-5.4-7.21-1.94,2.18v5Z" transform="translate(-301.35 -156.6)"/><path class="cls-2" d="M335.49,380.08h-2l5.7-15.52h1.94l5.7,15.52h-2L340.25,367h-.12Zm.73-6.06h7.94v1.67h-7.94Z" transform="translate(-301.35 -156.6)"/><path class="cls-2" d="M346.72,366.23v-1.67h11.64v1.67h-4.88v13.85H351.6V366.23Z" transform="translate(-301.35 -156.6)"/><path class="cls-2" d="M360.19,380.08h-2l5.7-15.52h1.94l5.7,15.52h-2L365,367h-.12Zm.73-6.06h7.94v1.67h-7.94Z" transform="translate(-301.35 -156.6)"/><path class="cls-2" d="M374.09,380.08V364.56h5.24a6.38,6.38,0,0,1,3,.62,4,4,0,0,1,1.73,1.7,5.22,5.22,0,0,1,.56,2.44,5.13,5.13,0,0,1-.56,2.43,4,4,0,0,1-1.72,1.67,6.46,6.46,0,0,1-3,.6h-4.24v-1.7h4.18a4.76,4.76,0,0,0,2-.36,2.35,2.35,0,0,0,1.1-1,3.51,3.51,0,0,0,.35-1.61,3.66,3.66,0,0,0-.35-1.63,2.42,2.42,0,0,0-1.11-1.08,4.65,4.65,0,0,0-2-.38H376v13.85Zm7.3-7,3.82,7H383l-3.76-7Z" transform="translate(-301.35 -156.6)"/><path class="cls-2" d="M387.32,380.08v-1.36l8.37-12.49h-8.46v-1.67h10.7v1.37l-8.37,12.49H398v1.66Z" transform="translate(-301.35 -156.6)"/><path class="cls-2" d="M399.94,364.56h2.16l4.3,7.25h.18l4.31-7.25H413l-5.61,9.13v6.39h-1.88v-6.39Z" transform="translate(-301.35 -156.6)"/><path class="cls-2" d="M427.87,364.56v15.52h-1.81L417.6,367.9h-.15v12.18h-1.88V364.56h1.82l8.48,12.22H426V364.56Z" transform="translate(-301.35 -156.6)"/><path class="cls-2" d="M432.37,380.08h-2l5.7-15.52H438l5.7,15.52h-2L437.13,367H437Zm.73-6.06H441v1.67H433.1Z" transform="translate(-301.35 -156.6)"/><path class="cls-2" d="M452.38,380.08V364.56h1.88v7.7h.18l7-7.7h2.46l-6.52,7,6.52,8.51h-2.28l-5.39-7.21-1.94,2.18v5Z" transform="translate(-301.35 -156.6)"/><path class="cls-2" d="M476.58,364.56h1.88v10.28a5.4,5.4,0,0,1-.75,2.84,5.17,5.17,0,0,1-2.1,2,7.38,7.38,0,0,1-6.36,0,5.26,5.26,0,0,1-2.11-2,5.49,5.49,0,0,1-.74-2.84V364.56h1.88v10.13a4,4,0,0,0,.5,2,3.46,3.46,0,0,0,1.43,1.38,4.52,4.52,0,0,0,2.22.51,4.59,4.59,0,0,0,2.23-.51,3.52,3.52,0,0,0,1.43-1.38,4.08,4.08,0,0,0,.49-2Z" transform="translate(-301.35 -156.6)"/><path class="cls-2" d="M481.48,366.23v-1.67h11.64v1.67h-4.88v13.85h-1.88V366.23Z" transform="translate(-301.35 -156.6)"/><path class="cls-2" d="M495,380.08h-2l5.7-15.52h1.94l5.7,15.52h-2L499.71,367h-.12Zm.73-6.06h7.94v1.67h-7.94Z" transform="translate(-301.35 -156.6)"/></svg>